<svg width="800" height="768" viewBox="0 0 800 768" fill="none" xmlns="http://www.w3.org/2000/svg">
<ellipse cx="394.5" cy="419" rx="257.5" ry="258" fill="url(#paint0_linear_52_26)" fill-opacity="0.29"/>
<path d="M394.5 161.5C536.436 161.5 651.5 276.786 651.5 419C651.5 561.214 536.436 676.5 394.5 676.5C252.564 676.5 137.5 561.214 137.5 419C137.5 276.786 252.564 161.5 394.5 161.5Z" stroke="url(#paint1_linear_52_26)" stroke-opacity="0.5"/>
<path d="M616.86 507.936L341.594 382.175L519.629 109.787L420.389 78.9904L652.755 3.54679L782.605 198.204L679.037 164.142L616.86 507.936Z" fill="url(#paint2_linear_52_26)"/>
<path d="M795.277 761.745L461.599 688.609L503.532 669.389L369.956 460.666L436.32 443.741L734.283 591.236L765.827 584.385L795.277 761.745Z" fill="url(#paint3_linear_52_26)"/>
<path fill-rule="evenodd" clip-rule="evenodd" d="M384.042 765.439L476.372 669.241L320.386 386.381L395.348 287.387L2.93649 226.355L47.6247 696.609L155.861 572.405L384.042 765.439ZM97.6189 385.163L168.643 312.064L179.827 328.915L148.808 357.847L207.775 427.566L232.245 402.516L239.317 411.509L179.025 475.539L171.347 468.781L198.218 438.707L138.664 367.865L108.238 396.801L97.6189 385.163Z" fill="url(#paint4_linear_52_26)"/>
<path d="M616.86 507.936L341.594 382.175L519.629 109.787L420.389 78.9904L652.755 3.54679L782.605 198.204L679.037 164.142L616.86 507.936Z" stroke="black"/>
<path d="M795.277 761.745L461.599 688.609L503.532 669.389L369.956 460.666L436.32 443.741L734.283 591.236L765.827 584.385L795.277 761.745Z" stroke="black"/>
<path fill-rule="evenodd" clip-rule="evenodd" d="M384.042 765.439L476.372 669.241L320.386 386.381L395.348 287.387L2.93649 226.355L47.6247 696.609L155.861 572.405L384.042 765.439ZM97.6189 385.163L168.643 312.064L179.827 328.915L148.808 357.847L207.775 427.566L232.245 402.516L239.317 411.509L179.025 475.539L171.347 468.781L198.218 438.707L138.664 367.865L108.238 396.801L97.6189 385.163Z" stroke="black"/>
<path fill-rule="evenodd" clip-rule="evenodd" d="M583.583 61.3721L519.98 178.272C544.083 186.977 597.615 201.9 618.918 191.946C640.221 181.992 658.106 134.913 664.385 112.617C667.638 101.119 671.059 86.1544 643.704 73.7176C618.925 62.4522 592.016 60.976 583.583 61.3721ZM552.952 164.74L598.052 74.7804C600.712 75.1155 616.514 76.5011 629.22 82.2974C654.535 93.8467 645.19 123.068 644.058 126.571C638.9 143.013 622.99 169.498 609.361 172.837C595.733 176.175 560.621 168.136 552.952 164.74Z" fill="black" stroke="black"/>
<path d="M675.334 664.084L649.759 674.018L593.094 638.393C580.558 640.996 561.787 625.837 597.731 620.037C661.098 609.813 637.286 586.085 621.057 583.26C606.568 580.738 559.326 592.435 541.501 610.157L527.341 594.97C601.886 550.046 646.051 562.402 663.948 581.145C689.96 608.389 643.43 629.819 622.796 635.644L675.334 664.084Z" fill="black"/>
<path d="M671.124 674.135C654.841 678.033 671.029 691.483 692.425 686.004C715.013 679.412 700.837 667.022 671.124 674.135Z" fill="black"/>
<path d="M675.334 664.084L649.759 674.018L593.094 638.393C580.558 640.996 561.787 625.837 597.731 620.037C661.098 609.813 637.286 586.085 621.057 583.26C606.568 580.738 559.326 592.435 541.501 610.157L527.341 594.97C601.886 550.046 646.051 562.402 663.948 581.145C689.96 608.389 643.43 629.819 622.796 635.644L675.334 664.084Z" stroke="black"/>
<path d="M671.124 674.135C654.841 678.033 671.029 691.483 692.425 686.004C715.013 679.412 700.837 667.022 671.124 674.135Z" stroke="black"/>
<defs>
<linearGradient id="paint0_linear_52_26" x1="394.5" y1="161" x2="394.5" y2="677" gradientUnits="userSpaceOnUse">
<stop stop-color="white"/>
<stop offset="0.663462"/>
</linearGradient>
<linearGradient id="paint1_linear_52_26" x1="394.5" y1="161" x2="394.5" y2="677" gradientUnits="userSpaceOnUse">
<stop offset="0.322003"/>
<stop offset="1" stop-color="#666666"/>
</linearGradient>
<linearGradient id="paint2_linear_52_26" x1="401.796" y1="2.17442" x2="397.622" y2="765.513" gradientUnits="userSpaceOnUse">
<stop stop-color="#FFE100"/>
<stop offset="1" stop-color="#8C3599"/>
</linearGradient>
<linearGradient id="paint3_linear_52_26" x1="401.796" y1="2.17442" x2="397.622" y2="765.513" gradientUnits="userSpaceOnUse">
<stop stop-color="#FFE100"/>
<stop offset="1" stop-color="#8C3599"/>
</linearGradient>
<linearGradient id="paint4_linear_52_26" x1="401.796" y1="2.17442" x2="397.622" y2="765.513" gradientUnits="userSpaceOnUse">
<stop stop-color="#FFE100"/>
<stop offset="1" stop-color="#8C3599"/>
</linearGradient>
</defs>
</svg>
